<?xml version="1.0" standalone="no"?><!DOCTYPE svg PUBLIC "-//W3C//DTD SVG 1.1//EN" "http://www.w3.org/Graphics/SVG/1.1/DTD/svg11.dtd"><svg t="1735971466875" class="icon" viewBox="0 0 1024 1024" version="1.1" xmlns="http://www.w3.org/2000/svg" p-id="4290" xmlns:xlink="http://www.w3.org/1999/xlink" width="200" height="200"><path d="M762.88 1000.96H130.56C58.88 1000.96 0 942.08 0 870.4V153.6C0 81.92 58.88 23.04 130.56 23.04h762.88C965.12 23.04 1024 81.92 1024 153.6v678.4c0 15.36-12.8 28.16-28.16 28.16s-28.16-12.8-28.16-28.16V153.6c0-40.96-33.28-75.52-75.52-75.52H130.56C89.6 78.08 55.04 112.64 55.04 153.6v716.8c0 40.96 33.28 75.52 75.52 75.52h632.32c7.68 0 15.36-3.84 19.2-10.24 5.12-6.4 5.12-15.36 2.56-21.76l-273.92-627.2-250.88 556.8c-6.4 14.08-23.04 20.48-37.12 14.08-14.08-6.4-20.48-23.04-14.08-37.12L486.4 207.36c5.12-10.24 14.08-16.64 25.6-16.64 11.52 0 20.48 6.4 25.6 16.64l299.52 683.52c10.24 25.6 7.68 52.48-6.4 75.52-15.36 21.76-40.96 34.56-67.84 34.56z" fill="#bb5f2f" p-id="4291"></path><path d="M655.36 610.56H355.84c-15.36 0-28.16-12.8-28.16-28.16s12.8-28.16 28.16-28.16h299.52c15.36 0 28.16 12.8 28.16 28.16s-12.8 28.16-28.16 28.16z" fill="#bb5f2f" p-id="4292"></path></svg>